# xmcd CD database file
#
# Track frame offsets:
#        150
#        15615
#        27434
#        44390
#        60250
#        77058
#        93903
#        109867
#        132215
#        148453
#        163728
#        181588
#        199427
#
# Disc length: 2988 seconds
#
# Revision: 0
# Processed by: cddbd v1.5.2PL0 Copyright (c) Steve Scherf et al.
# Submitted via: CUERipper 2.1.6
#
DISCID=ae0baa0d
DTITLE=Alex Woodard - For The Sender
DYEAR=2012
DGENRE=Country
TTITLE0=For the Sender
TTITLE1=My Love Will Find You
TTITLE2=Never Alone
TTITLE3=Unbroken
TTITLE4=Love Began As a Whisper
TTITLE5=The Right Words
TTITLE6=Rescue
TTITLE7=Act of God
TTITLE8=Broken Wide Open
TTITLE9=From the Ashes
TTITLE10=Begun
TTITLE11=Hush
TTITLE12=The Table Live at Eddie's Attic
EXTD=
EXTT0=
EXTT1=
EXTT2=
EXTT3=
EXTT4=
EXTT5=
EXTT6=
EXTT7=
EXTT8=
EXTT9=
EXTT10=
EXTT11=
EXTT12=
PLAYORDER=
